<mxfile host="app.diagrams.net" agent="Mozilla/5.0 (Windows NT 10.0; Win64; x64) AppleWebKit/537.36 (KHTML, like Gecko) Chrome/131.0.0.0 Safari/537.36" version="26.0.6">
  <diagram name="Page-1" id="27hqkqz1j9sOVjFSipjY">
    <mxGraphModel dx="1621" dy="459" grid="1" gridSize="10" guides="1" tooltips="1" connect="1" arrows="1" fold="1" page="1" pageScale="1" pageWidth="827" pageHeight="1169" math="0" shadow="0">
      <root>
        <mxCell id="0" />
        <mxCell id="1" parent="0" />
        <mxCell id="wfNiFpn1Ms7DDixurBHB-1" value="DATA SOURCES" style="rounded=0;whiteSpace=wrap;html=1;" vertex="1" parent="1">
          <mxGeometry x="-270" width="120" height="20" as="geometry" />
        </mxCell>
        <mxCell id="wfNiFpn1Ms7DDixurBHB-2" value="e.g. Government Agency Data, Internal Database, Unstructured Files" style="text;html=1;align=center;verticalAlign=middle;whiteSpace=wrap;rounded=0;" vertex="1" parent="1">
          <mxGeometry x="-270" y="30" width="110" height="50" as="geometry" />
        </mxCell>
        <mxCell id="wfNiFpn1Ms7DDixurBHB-4" value="Ingestion Layer" style="rounded=0;whiteSpace=wrap;html=1;" vertex="1" parent="1">
          <mxGeometry x="-50" width="120" height="20" as="geometry" />
        </mxCell>
        <mxCell id="wfNiFpn1Ms7DDixurBHB-5" value="Data Transformation Layer" style="rounded=0;whiteSpace=wrap;html=1;" vertex="1" parent="1">
          <mxGeometry x="160" width="120" height="30" as="geometry" />
        </mxCell>
      </root>
    </mxGraphModel>
  </diagram>
</mxfile>
